PathFileType	4	(X/Y/Z)	./resultDataOpenSim/trcMotMarkerGrf/sub06/qtm-15-03.trc
DataRate	CameraRate	NumFrames	NumMarkers	Units	OrigDataRate	OrigDataStartFrame	OrigNumFrames
250.000000	250.000000	7	24	m	250.000000	261	521
Frame#	Time	L.Toe.Tip			R.Toe.Tip			L.Ankle.Lat			R.Ankle.Lat			L.Ankle.Med			R.Ankle.Med			L.Heel			R.Heel			L.Knee.Lat			R.Knee.Lat			L.Knee.Med			R.Knee.Med			L.Thigh.Upper			R.Thigh.Upper			L.ASIS			R.ASIS			V.Sacral			L.Acromium			R.Acromium			C7			L.Elbow			R.Elbow			L.Wrist.Lat			R.Wrist.Lat
		X1	Y1	Z1	X2	Y2	Z2	X3	Y3	Z3	X4	Y4	Z4	X5	Y5	Z5	X6	Y6	Z6	X7	Y7	Z7	X8	Y8	Z8	X9	Y9	Z9	X10	Y10	Z10	X11	Y11	Z11	X12	Y12	Z12	X13	Y13	Z13	X14	Y14	Z14	X15	Y15	Z15	X16	Y16	Z16	X17	Y17	Z17	X18	Y18	Z18	X19	Y19	Z19	X20	Y20	Z20	X21	Y21	Z21	X22	Y22	Z22	X23	Y23	Z23	X24	Y24	Z24

261	1.04	0.15951492	-0.064743569	-0.042469973	0.8918736	0.22601723	0.0706896	0.050134367	-0.0011830366	-0.084164532	0.75713465	0.21836247	0.10701186	0.050106849	0.017475508	0.0020222922	0.76342244	0.24461676	0.019717762	-0.028132079	-0.0084021315	-0.042853922	0.70886553	0.1788273	0.050809589	0.18415299	0.34987754	-0.099321384	0.65182794	0.59198083	0.11770586	0.17343301	0.3550245	0.024798328	0.62651277	0.56314111	0.0010781497	0.2277342	0.72914252	-0.15833949	0.3466997	0.76758661	0.18210489	0.31824288	0.77715984	-0.14450983	0.3989288	0.80015585	0.089882967	0.18660507	0.86218943	0.033163758	0.42741087	1.2786711	-0.14867972	0.42240545	1.2135492	0.19219303	0.36327729	1.2976473	0.01957122	0.52392093	1.015813	-0.32793978	0.17100075	1.0246744	0.24079212	0.73115369	1.128196	-0.22404972	0.12964618	0.80312006	0.32103722
262	1.044	0.15961441	-0.064699296	-0.04250044	0.89989033	0.22409336	0.07083017	0.051367062	0.00014962903	-0.084438062	0.76489	0.2156562	0.10625433	0.051521822	0.018756518	0.0017713304	0.77169599	0.24215839	0.019063534	-0.027014655	-0.0061772961	-0.043024241	0.717277	0.17602941	0.04960779	0.18870148	0.35002662	-0.099338459	0.6587105	0.58915934	0.1173836	0.17857449	0.35494094	0.024883457	0.63298574	0.56013278	0.00067953436	0.23359391	0.72911674	-0.15760832	0.3541434	0.7665063	0.18244694	0.32459401	0.776993	-0.14399871	0.40626025	0.79990963	0.090356152	0.19364208	0.86194437	0.034341432	0.43383478	1.2785338	-0.14827834	0.43002557	1.2130657	0.19262573	0.37083158	1.2974222	0.020363167	0.53283389	1.0168023	-0.3271039	0.17785104	1.0256559	0.24075596	0.7376729	1.1333523	-0.22299462	0.13419502	0.80484476	0.32117264
263	1.048	0.15970427	-0.064644113	-0.042545846	0.90739678	0.22170454	0.071137556	0.052703271	0.0015095407	-0.084632264	0.7721184	0.21260549	0.10557076	0.053084323	0.020089184	0.001536623	0.77955143	0.23934836	0.01847586	-0.025811162	-0.0038663539	-0.043205463	0.72514222	0.17293952	0.048453938	0.19336043	0.35018018	-0.09935391	0.66556311	0.58612899	0.11706374	0.18392141	0.3548137	0.024930722	0.63945429	0.55691747	0.00023983952	0.23953666	0.72910079	-0.15688551	0.36133606	0.76525224	0.18252405	0.33103077	0.77688332	-0.14351237	0.41371541	0.79975522	0.090815731	0.20053922	0.86176804	0.035694731	0.44022343	1.2784903	-0.14784183	0.43763744	1.2126033	0.19304315	0.37839557	1.2971044	0.021489704	0.54154472	1.0177741	-0.32617811	0.1847765	1.0266051	0.24081165	0.74409365	1.1382845	-0.22193556	0.13884226	0.80651125	0.32127773
264	1.052	0.15978178	-0.064583783	-0.042603054	0.91443112	0.21884016	0.071537385	0.054112396	0.0029012971	-0.084775674	0.77882878	0.20924851	0.10497621	0.054794162	0.0214687	0.0013106094	0.78697398	0.23618064	0.017931411	-0.024502086	-0.0014495633	-0.043355849	0.73247807	0.16956727	0.04737189	0.1981076	0.35033928	-0.099367614	0.67240072	0.58290353	0.11677587	0.18944542	0.35464771	0.024936515	0.64590822	0.55348699	-0.00023342622	0.24555136	0.72909398	-0.15617711	0.36831165	0.76384744	0.18238715	0.33750759	0.77681771	-0.14305524	0.42143167	0.7997356	0.091266121	0.20729997	0.86165948	0.037182613	0.44658665	1.2785678	-0.14737805	0.44531465	1.2121618	0.19347478	0.38598278	1.2966849	0.023006783	0.55005899	1.0187082	-0.32518509	0.19176683	1.0275219	0.24094607	0.75040674	1.1430035	-0.22089218	0.14353265	0.80809758	0.32134597
265	1.056	0.15985758	-0.064522977	-0.04264569	0.92101728	0.21551966	0.071974256	0.055566012	0.0043475177	-0.084921643	0.78496452	0.20565817	0.10449302	0.056624561	0.022880534	0.0010794865	0.79393159	0.23266	0.017409613	-0.023057856	0.0010646272	-0.043432071	0.73930278	0.16592438	0.046377204	0.2029271	0.35050639	-0.099402991	0.67923752	0.57948836	0.11655199	0.19511757	0.35444887	0.024902306	0.65233624	0.5498396	-0.00072689831	0.2516304	0.72910502	-0.15547649	0.37532455	0.76241463	0.18222791	0.34402742	0.77677131	-0.14263069	0.42955514	0.79989245	0.091708365	0.21413823	0.86155434	0.038620794	0.4529316	1.2788088	-0.14690241	0.45308084	1.2117152	0.1939294	0.39358518	1.2962364	0.024735158	0.55837376	1.0195941	-0.32414743	0.1988117	1.0284057	0.24114121	0.75659783	1.1475029	-0.21987695	0.14836172	0.80958914	0.32140623
266	1.06	0.15994668	-0.064461332	-0.042647199	0.92715822	0.2117877	0.07241841	0.05706273	0.0058510418	-0.085077804	0.79041719	0.20193256	0.10415478	0.058541685	0.024315631	0.00084393096	0.80039465	0.22880931	0.016913288	-0.021454565	0.0036310093	-0.043416694	0.7456369	0.1620249	0.045481747	0.20780485	0.35068305	-0.099503142	0.68605009	0.57587166	0.11638961	0.20090923	0.35422216	0.024843554	0.6587314	0.54598136	-0.0012217781	0.2577673	0.72914029	-0.15477598	0.38265132	0.76108836	0.18221509	0.35060906	0.77672532	-0.14224057	0.43805208	0.80018403	0.09211882	0.22137254	0.86135356	0.039804652	0.45925997	1.2792365	-0.1464246	0.46092679	1.2112288	0.19440082	0.40117884	1.2958582	0.026404522	0.56647154	1.0204425	-0.32308139	0.205902	1.0292546	0.24138173	0.76265994	1.15175	-0.21887651	0.15338924	0.81097394	0.3214744
267	1.064	0.16005837	-0.064391413	-0.042603967	0.93285436	0.2076855	0.072853119	0.058621024	0.0073964419	-0.085208312	0.79518758	0.19810594	0.10396233	0.060529346	0.025778226	0.00061595893	0.80634225	0.22466097	0.016464805	-0.019695546	0.006220577	-0.043323604	0.75149624	0.15788328	0.044695125	0.21273657	0.35086566	-0.099685335	0.69276217	0.57202561	0.11623333	0.2067927	0.35397195	0.024781069	0.66508816	0.54192065	-0.0016981007	0.26395771	0.72919294	-0.1540809	0.39036018	0.75992403	0.18236049	0.35723622	0.77667595	-0.14188029	0.44661245	0.80045271	0.092454449	0.22917815	0.86098901	0.040644	0.46556469	1.2798068	-0.14591349	0.468832	1.2106778	0.19487769	0.40875415	1.2955948	0.027868081	0.57432713	1.0212695	-0.32199897	0.21304993	1.0300666	0.24166165	0.76860055	1.1557107	-0.21786446	0.15858922	0.81226201	0.32154176
